<svg xmlns="http://www.w3.org/2000/svg" aria-hidden="true" viewBox="0 0 32 32"><path fill="#41D1FF" d="M29.884 6.146 16.795 29.622a.755.755 0 0 1-1.313.006L2.116 6.146a.752.752 0 0 1 .788-1.114l13.117 2.345a.75.75 0 0 0 .268 0l12.789-2.34a.752.752 0 0 1 .806 1.11Z"/><path fill="#FFEA83" d="M22.264 1.014 12.6 2.908a.34.34 0 0 0-.27.314l-.594 10.022a.34.34 0 0 0 .42.35l2.69-.62a.34.34 0 0 1 .41.4l-.8 3.918a.34.34 0 0 0 .43.397l1.66-.504a.34.34 0 0 1 .43.396l-1.27 6.147c-.06.29.327.448.49.2l.108-.164 7.875-15.72a.34.34 0 0 0-.375-.487l-2.768.534a.34.34 0 0 1-.397-.43l1.806-6.26a.34.34 0 0 0-.41-.428Z"/></svg>
